<svg width="170" height="58" viewBox="0 0 170 58" fill="none" xmlns="http://www.w3.org/2000/svg">
<mask id="path-1-outside-1_7937_271" maskUnits="userSpaceOnUse" x="-0.805664" y="31.3301" width="94" height="21" fill="black">
<rect fill="white" x="-0.805664" y="31.3301" width="94" height="21"/>
<path d="M8.39434 47.2341L11.7543 37.0341H15.3303L10.4103 50.3301H6.33034L1.43434 37.0341H5.03434L8.39434 47.2341ZM16.3535 43.6341C16.3535 42.2901 16.6175 41.0981 17.1455 40.0581C17.6895 39.0181 18.4175 38.2181 19.3295 37.6581C20.2575 37.0981 21.2895 36.8181 22.4255 36.8181C23.4175 36.8181 24.2815 37.0181 25.0175 37.4181C25.7695 37.8181 26.3695 38.3221 26.8175 38.9301V37.0341H30.2015V50.3301H26.8175V48.3861C26.3855 49.0101 25.7855 49.5301 25.0175 49.9461C24.2655 50.3461 23.3935 50.5461 22.4015 50.5461C21.2815 50.5461 20.2575 50.2581 19.3295 49.6821C18.4175 49.1061 17.6895 48.2981 17.1455 47.2581C16.6175 46.2021 16.3535 44.9941 16.3535 43.6341ZM26.8175 43.6821C26.8175 42.8661 26.6575 42.1701 26.3375 41.5941C26.0175 41.0021 25.5855 40.5541 25.0415 40.2501C24.4975 39.9301 23.9135 39.7701 23.2895 39.7701C22.6655 39.7701 22.0895 39.9221 21.5615 40.2261C21.0335 40.5301 20.6015 40.9781 20.2655 41.5701C19.9455 42.1461 19.7855 42.8341 19.7855 43.6341C19.7855 44.4341 19.9455 45.1381 20.2655 45.7461C20.6015 46.3381 21.0335 46.7941 21.5615 47.1141C22.1055 47.4341 22.6815 47.5941 23.2895 47.5941C23.9135 47.5941 24.4975 47.4421 25.0415 47.1381C25.5855 46.8181 26.0175 46.3701 26.3375 45.7941C26.6575 45.2021 26.8175 44.4981 26.8175 43.6821ZM36.8431 32.5701V50.3301H33.4831V32.5701H36.8431ZM52.5228 43.3941C52.5228 43.8741 52.4908 44.3061 52.4268 44.6901H42.7068C42.7868 45.6501 43.1228 46.4021 43.7148 46.9461C44.3068 47.4901 45.0348 47.7621 45.8988 47.7621C47.1468 47.7621 48.0348 47.2261 48.5628 46.1541H52.1868C51.8028 47.4341 51.0668 48.4901 49.9788 49.3221C48.8908 50.1381 47.5548 50.5461 45.9708 50.5461C44.6908 50.5461 43.5388 50.2661 42.5148 49.7061C41.5068 49.1301 40.7148 48.3221 40.1388 47.2821C39.5788 46.2421 39.2988 45.0421 39.2988 43.6821C39.2988 42.3061 39.5788 41.0981 40.1388 40.0581C40.6988 39.0181 41.4828 38.2181 42.4908 37.6581C43.4988 37.0981 44.6588 36.8181 45.9708 36.8181C47.2348 36.8181 48.3628 37.0901 49.3548 37.6341C50.3628 38.1781 51.1388 38.9541 51.6828 39.9621C52.2428 40.9541 52.5228 42.0981 52.5228 43.3941ZM49.0428 42.4341C49.0268 41.5701 48.7148 40.8821 48.1068 40.3701C47.4988 39.8421 46.7548 39.5781 45.8748 39.5781C45.0428 39.5781 44.3388 39.8341 43.7628 40.3461C43.2028 40.8421 42.8588 41.5381 42.7308 42.4341H49.0428ZM58.3353 39.0981C58.7673 38.3941 59.3273 37.8421 60.0153 37.4421C60.7193 37.0421 61.5193 36.8421 62.4153 36.8421V40.3701H61.5273C60.4713 40.3701 59.6713 40.6181 59.1273 41.1141C58.5993 41.6101 58.3353 42.4741 58.3353 43.7061V50.3301H54.9753V37.0341H58.3353V39.0981ZM72.5505 50.3301L68.0385 44.6661V50.3301H64.6785V32.5701H68.0385V42.6741L72.5025 37.0341H76.8705L71.0145 43.7061L76.9185 50.3301H72.5505ZM77.8301 43.6341C77.8301 42.2901 78.0941 41.0981 78.6221 40.0581C79.1661 39.0181 79.8941 38.2181 80.8061 37.6581C81.7341 37.0981 82.7661 36.8181 83.9021 36.8181C84.8941 36.8181 85.7581 37.0181 86.4941 37.4181C87.2461 37.8181 87.8461 38.3221 88.2941 38.9301V37.0341H91.6781V50.3301H88.2941V48.3861C87.8621 49.0101 87.2621 49.5301 86.4941 49.9461C85.7421 50.3461 84.8701 50.5461 83.8781 50.5461C82.7581 50.5461 81.7341 50.2581 80.8061 49.6821C79.8941 49.1061 79.1661 48.2981 78.6221 47.2581C78.0941 46.2021 77.8301 44.9941 77.8301 43.6341ZM88.2941 43.6821C88.2941 42.8661 88.1341 42.1701 87.8141 41.5941C87.4941 41.0021 87.0621 40.5541 86.5181 40.2501C85.9741 39.9301 85.3901 39.7701 84.7661 39.7701C84.1421 39.7701 83.5661 39.9221 83.0381 40.2261C82.5101 40.5301 82.0781 40.9781 81.7421 41.5701C81.4221 42.1461 81.2621 42.8341 81.2621 43.6341C81.2621 44.4341 81.4221 45.1381 81.7421 45.7461C82.0781 46.3381 82.5101 46.7941 83.0381 47.1141C83.5821 47.4341 84.1581 47.5941 84.7661 47.5941C85.3901 47.5941 85.9741 47.4421 86.5181 47.1381C87.0621 46.8181 87.4941 46.3701 87.8141 45.7941C88.1341 45.2021 88.2941 44.4981 88.2941 43.6821Z"/>
</mask>
<path d="M8.39434 47.2341L11.7543 37.0341H15.3303L10.4103 50.3301H6.33034L1.43434 37.0341H5.03434L8.39434 47.2341ZM16.3535 43.6341C16.3535 42.2901 16.6175 41.0981 17.1455 40.0581C17.6895 39.0181 18.4175 38.2181 19.3295 37.6581C20.2575 37.0981 21.2895 36.8181 22.4255 36.8181C23.4175 36.8181 24.2815 37.0181 25.0175 37.4181C25.7695 37.8181 26.3695 38.3221 26.8175 38.9301V37.0341H30.2015V50.3301H26.8175V48.3861C26.3855 49.0101 25.7855 49.5301 25.0175 49.9461C24.2655 50.3461 23.3935 50.5461 22.4015 50.5461C21.2815 50.5461 20.2575 50.2581 19.3295 49.6821C18.4175 49.1061 17.6895 48.2981 17.1455 47.2581C16.6175 46.2021 16.3535 44.9941 16.3535 43.6341ZM26.8175 43.6821C26.8175 42.8661 26.6575 42.1701 26.3375 41.5941C26.0175 41.0021 25.5855 40.5541 25.0415 40.2501C24.4975 39.9301 23.9135 39.7701 23.2895 39.7701C22.6655 39.7701 22.0895 39.9221 21.5615 40.2261C21.0335 40.5301 20.6015 40.9781 20.2655 41.5701C19.9455 42.1461 19.7855 42.8341 19.7855 43.6341C19.7855 44.4341 19.9455 45.1381 20.2655 45.7461C20.6015 46.3381 21.0335 46.7941 21.5615 47.1141C22.1055 47.4341 22.6815 47.5941 23.2895 47.5941C23.9135 47.5941 24.4975 47.4421 25.0415 47.1381C25.5855 46.8181 26.0175 46.3701 26.3375 45.7941C26.6575 45.2021 26.8175 44.4981 26.8175 43.6821ZM36.8431 32.5701V50.3301H33.4831V32.5701H36.8431ZM52.5228 43.3941C52.5228 43.8741 52.4908 44.3061 52.4268 44.6901H42.7068C42.7868 45.6501 43.1228 46.4021 43.7148 46.9461C44.3068 47.4901 45.0348 47.7621 45.8988 47.7621C47.1468 47.7621 48.0348 47.2261 48.5628 46.1541H52.1868C51.8028 47.4341 51.0668 48.4901 49.9788 49.3221C48.8908 50.1381 47.5548 50.5461 45.9708 50.5461C44.6908 50.5461 43.5388 50.2661 42.5148 49.7061C41.5068 49.1301 40.7148 48.3221 40.1388 47.2821C39.5788 46.2421 39.2988 45.0421 39.2988 43.6821C39.2988 42.3061 39.5788 41.0981 40.1388 40.0581C40.6988 39.0181 41.4828 38.2181 42.4908 37.6581C43.4988 37.0981 44.6588 36.8181 45.9708 36.8181C47.2348 36.8181 48.3628 37.0901 49.3548 37.6341C50.3628 38.1781 51.1388 38.9541 51.6828 39.9621C52.2428 40.9541 52.5228 42.0981 52.5228 43.3941ZM49.0428 42.4341C49.0268 41.5701 48.7148 40.8821 48.1068 40.3701C47.4988 39.8421 46.7548 39.5781 45.8748 39.5781C45.0428 39.5781 44.3388 39.8341 43.7628 40.3461C43.2028 40.8421 42.8588 41.5381 42.7308 42.4341H49.0428ZM58.3353 39.0981C58.7673 38.3941 59.3273 37.8421 60.0153 37.4421C60.7193 37.0421 61.5193 36.8421 62.4153 36.8421V40.3701H61.5273C60.4713 40.3701 59.6713 40.6181 59.1273 41.1141C58.5993 41.6101 58.3353 42.4741 58.3353 43.7061V50.3301H54.9753V37.0341H58.3353V39.0981ZM72.5505 50.3301L68.0385 44.6661V50.3301H64.6785V32.5701H68.0385V42.6741L72.5025 37.0341H76.8705L71.0145 43.7061L76.9185 50.3301H72.5505ZM77.8301 43.6341C77.8301 42.2901 78.0941 41.0981 78.6221 40.0581C79.1661 39.0181 79.8941 38.2181 80.8061 37.6581C81.7341 37.0981 82.7661 36.8181 83.9021 36.8181C84.8941 36.8181 85.7581 37.0181 86.4941 37.4181C87.2461 37.8181 87.8461 38.3221 88.2941 38.9301V37.0341H91.6781V50.3301H88.2941V48.3861C87.8621 49.0101 87.2621 49.5301 86.4941 49.9461C85.7421 50.3461 84.8701 50.5461 83.8781 50.5461C82.7581 50.5461 81.7341 50.2581 80.8061 49.6821C79.8941 49.1061 79.1661 48.2981 78.6221 47.2581C78.0941 46.2021 77.8301 44.9941 77.8301 43.6341ZM88.2941 43.6821C88.2941 42.8661 88.1341 42.1701 87.8141 41.5941C87.4941 41.0021 87.0621 40.5541 86.5181 40.2501C85.9741 39.9301 85.3901 39.7701 84.7661 39.7701C84.1421 39.7701 83.5661 39.9221 83.0381 40.2261C82.5101 40.5301 82.0781 40.9781 81.7421 41.5701C81.4221 42.1461 81.2621 42.8341 81.2621 43.6341C81.2621 44.4341 81.4221 45.1381 81.7421 45.7461C82.0781 46.3381 82.5101 46.7941 83.0381 47.1141C83.5821 47.4341 84.1581 47.5941 84.7661 47.5941C85.3901 47.5941 85.9741 47.4421 86.5181 47.1381C87.0621 46.8181 87.4941 46.3701 87.8141 45.7941C88.1341 45.2021 88.2941 44.4981 88.2941 43.6821Z" fill="#FAFAFA"/>
<path d="M8.39434 47.2341L7.44454 47.547L8.39434 50.4303L9.34413 47.547L8.39434 47.2341ZM11.7543 37.0341V36.0341H11.0309L10.8045 36.7212L11.7543 37.0341ZM15.3303 37.0341L16.2682 37.3811L16.7666 36.0341H15.3303V37.0341ZM10.4103 50.3301V51.3301H11.1066L11.3482 50.6771L10.4103 50.3301ZM6.33034 50.3301L5.39194 50.6756L5.63293 51.3301H6.33034V50.3301ZM1.43434 37.0341V36.0341H0.000462294L0.495935 37.3796L1.43434 37.0341ZM5.03434 37.0341L5.98413 36.7212L5.75778 36.0341H5.03434V37.0341ZM8.39434 47.2341L9.34413 47.547L12.7041 37.347L11.7543 37.0341L10.8045 36.7212L7.44454 46.9212L8.39434 47.2341ZM11.7543 37.0341V38.0341H15.3303V37.0341V36.0341H11.7543V37.0341ZM15.3303 37.0341L14.3925 36.687L9.47249 49.983L10.4103 50.3301L11.3482 50.6771L16.2682 37.3811L15.3303 37.0341ZM10.4103 50.3301V49.3301H6.33034V50.3301V51.3301H10.4103V50.3301ZM6.33034 50.3301L7.26874 49.9845L2.37274 36.6885L1.43434 37.0341L0.495935 37.3796L5.39194 50.6756L6.33034 50.3301ZM1.43434 37.0341V38.0341H5.03434V37.0341V36.0341H1.43434V37.0341ZM5.03434 37.0341L4.08454 37.347L7.44454 47.547L8.39434 47.2341L9.34413 46.9212L5.98413 36.7212L5.03434 37.0341ZM17.1455 40.0581L16.2594 39.5945L16.2539 39.6054L17.1455 40.0581ZM19.3295 37.6581L18.8128 36.8019L18.8063 36.8059L19.3295 37.6581ZM25.0175 37.4181L24.54 38.2967L24.5479 38.3009L25.0175 37.4181ZM26.8175 38.9301L26.0125 39.5233L27.8175 41.973V38.9301H26.8175ZM26.8175 37.0341V36.0341H25.8175V37.0341H26.8175ZM30.2015 37.0341H31.2015V36.0341H30.2015V37.0341ZM30.2015 50.3301V51.3301H31.2015V50.3301H30.2015ZM26.8175 50.3301H25.8175V51.3301H26.8175V50.3301ZM26.8175 48.3861H27.8175V45.1848L25.9953 47.8169L26.8175 48.3861ZM25.0175 49.9461L25.4872 50.829L25.4938 50.8254L25.0175 49.9461ZM19.3295 49.6821L18.7955 50.5276L18.8022 50.5317L19.3295 49.6821ZM17.1455 47.2581L16.2511 47.7053L16.2552 47.7135L16.2594 47.7216L17.1455 47.2581ZM26.3375 41.5941L25.4578 42.0696L25.4634 42.0797L26.3375 41.5941ZM25.0415 40.2501L24.5345 41.112L24.544 41.1176L24.5537 41.123L25.0415 40.2501ZM21.5615 40.2261L21.0626 39.3595V39.3595L21.5615 40.2261ZM20.2655 41.5701L19.3958 41.0765L19.3914 41.0844L20.2655 41.5701ZM20.2655 45.7461L19.3806 46.2118L19.388 46.2259L19.3958 46.2397L20.2655 45.7461ZM21.5615 47.1141L21.0432 47.9693L21.0545 47.976L21.5615 47.1141ZM25.0415 47.1381L25.5293 48.011L25.539 48.0056L25.5485 48L25.0415 47.1381ZM26.3375 45.7941L27.2117 46.2798L27.2172 46.2696L26.3375 45.7941ZM16.3535 43.6341H17.3535C17.3535 42.4234 17.5905 41.3905 18.0372 40.5108L17.1455 40.0581L16.2539 39.6054C15.6445 40.8056 15.3535 42.1568 15.3535 43.6341H16.3535ZM17.1455 40.0581L18.0316 40.5216C18.5003 39.6256 19.1092 38.9668 19.8528 38.5103L19.3295 37.6581L18.8063 36.8059C17.7258 37.4693 16.8787 38.4106 16.2594 39.5946L17.1455 40.0581ZM19.3295 37.6581L19.8462 38.5143C20.6106 38.053 21.4625 37.8181 22.4255 37.8181V36.8181V35.8181C21.1166 35.8181 19.9044 36.1432 18.8129 36.8019L19.3295 37.6581ZM22.4255 36.8181V37.8181C23.2815 37.8181 23.9754 37.9898 24.54 38.2967L25.0175 37.4181L25.495 36.5395C24.5877 36.0463 23.5536 35.8181 22.4255 35.8181V36.8181ZM25.0175 37.4181L24.5479 38.3009C25.1848 38.6397 25.6639 39.0503 26.0125 39.5233L26.8175 38.9301L27.6226 38.3369C27.0751 37.5939 26.3542 36.9964 25.4871 36.5352L25.0175 37.4181ZM26.8175 38.9301H27.8175V37.0341H26.8175H25.8175V38.9301H26.8175ZM26.8175 37.0341V38.0341H30.2015V37.0341V36.0341H26.8175V37.0341ZM30.2015 37.0341H29.2015V50.3301H30.2015H31.2015V37.0341H30.2015ZM30.2015 50.3301V49.3301H26.8175V50.3301V51.3301H30.2015V50.3301ZM26.8175 50.3301H27.8175V48.3861H26.8175H25.8175V50.3301H26.8175ZM26.8175 48.3861L25.9953 47.8169C25.6653 48.2936 25.1921 48.7142 24.5412 49.0668L25.0175 49.9461L25.4938 50.8254C26.379 50.3459 27.1057 49.7266 27.6397 48.9553L26.8175 48.3861ZM25.0175 49.9461L24.5479 49.0632C23.9626 49.3745 23.2568 49.5461 22.4015 49.5461V50.5461V51.5461C23.5302 51.5461 24.5684 51.3176 25.4871 50.829L25.0175 49.9461ZM22.4015 50.5461V49.5461C21.4629 49.5461 20.6224 49.3076 19.8569 48.8324L19.3295 49.6821L18.8022 50.5317C19.8927 51.2086 21.1002 51.5461 22.4015 51.5461V50.5461ZM19.3295 49.6821L19.8635 48.8366C19.1135 48.3629 18.5014 47.6926 18.0316 46.7946L17.1455 47.2581L16.2594 47.7216C16.8777 48.9035 17.7216 49.8493 18.7955 50.5276L19.3295 49.6821ZM17.1455 47.2581L18.04 46.8109C17.5912 45.9134 17.3535 44.8625 17.3535 43.6341H16.3535H15.3535C15.3535 45.1257 15.6438 46.4907 16.2511 47.7053L17.1455 47.2581ZM26.8175 43.6821H27.8175C27.8175 42.7362 27.6317 41.8644 27.2117 41.1084L26.3375 41.5941L25.4634 42.0797C25.6834 42.4757 25.8175 42.996 25.8175 43.6821H26.8175ZM26.3375 41.5941L27.2172 41.1186C26.8145 40.3735 26.2523 39.7811 25.5293 39.3771L25.0415 40.2501L24.5537 41.123C24.9187 41.327 25.2206 41.6307 25.4578 42.0696L26.3375 41.5941ZM25.0415 40.2501L25.5485 39.3881C24.8527 38.9788 24.094 38.7701 23.2895 38.7701V39.7701V40.7701C23.7331 40.7701 24.1423 40.8813 24.5345 41.112L25.0415 40.2501ZM23.2895 39.7701V38.7701C22.4948 38.7701 21.7461 38.9659 21.0626 39.3595L21.5615 40.2261L22.0605 41.0927C22.4329 40.8783 22.8362 40.7701 23.2895 40.7701V39.7701ZM21.5615 40.2261L21.0626 39.3595C20.3623 39.7626 19.8093 40.3479 19.3958 41.0765L20.2655 41.5701L21.1352 42.0637C21.3937 41.6082 21.7047 41.2975 22.0605 41.0927L21.5615 40.2261ZM20.2655 41.5701L19.3914 41.0844C18.9729 41.8377 18.7855 42.7003 18.7855 43.6341H19.7855H20.7855C20.7855 42.9679 20.9182 42.4545 21.1397 42.0557L20.2655 41.5701ZM19.7855 43.6341H18.7855C18.7855 44.5696 18.9735 45.4383 19.3806 46.2118L20.2655 45.7461L21.1504 45.2803C20.9176 44.8379 20.7855 44.2985 20.7855 43.6341H19.7855ZM20.2655 45.7461L19.3958 46.2397C19.8073 46.9647 20.3545 47.5519 21.0432 47.9693L21.5615 47.1141L22.0798 46.2589C21.7125 46.0363 21.3957 45.7115 21.1352 45.2525L20.2655 45.7461ZM21.5615 47.1141L21.0545 47.976C21.7461 48.3828 22.4963 48.5941 23.2895 48.5941V47.5941V46.5941C22.8668 46.5941 22.465 46.4853 22.0685 46.2521L21.5615 47.1141ZM23.2895 47.5941V48.5941C24.0841 48.5941 24.8361 48.3985 25.5293 48.011L25.0415 47.1381L24.5537 46.2651C24.159 46.4857 23.743 46.5941 23.2895 46.5941V47.5941ZM25.0415 47.1381L25.5485 48C26.2532 47.5855 26.809 47.0045 27.2117 46.2797L26.3375 45.7941L25.4634 45.3084C25.226 45.7357 24.9178 46.0507 24.5345 46.2761L25.0415 47.1381ZM26.3375 45.7941L27.2172 46.2696C27.6313 45.5035 27.8175 44.6291 27.8175 43.6821H26.8175H25.8175C25.8175 44.3671 25.6837 44.9006 25.4578 45.3186L26.3375 45.7941ZM36.8431 32.5701H37.8431V31.5701H36.8431V32.5701ZM36.8431 50.3301V51.3301H37.8431V50.3301H36.8431ZM33.4831 50.3301H32.4831V51.3301H33.4831V50.3301ZM33.4831 32.5701V31.5701H32.4831V32.5701H33.4831ZM36.8431 32.5701H35.8431V50.3301H36.8431H37.8431V32.5701H36.8431ZM36.8431 50.3301V49.3301H33.4831V50.3301V51.3301H36.8431V50.3301ZM33.4831 50.3301H34.4831V32.5701H33.4831H32.4831V50.3301H33.4831ZM33.4831 32.5701V33.5701H36.8431V32.5701V31.5701H33.4831V32.5701ZM52.4268 44.6901V45.6901H53.274L53.4132 44.8545L52.4268 44.6901ZM42.7068 44.6901V43.6901H41.62L41.7103 44.7731L42.7068 44.6901ZM43.7148 46.9461L43.0382 47.6824V47.6824L43.7148 46.9461ZM48.5628 46.1541V45.1541H47.9407L47.6657 45.7122L48.5628 46.1541ZM52.1868 46.1541L53.1447 46.4414L53.5309 45.1541H52.1868V46.1541ZM49.9788 49.3221L50.5789 50.1221L50.5863 50.1164L49.9788 49.3221ZM42.5148 49.7061L42.0187 50.5743L42.0268 50.579L42.035 50.5834L42.5148 49.7061ZM40.1388 47.2821L39.2583 47.7562L39.264 47.7666L40.1388 47.2821ZM40.1388 40.0581L39.2584 39.584V39.584L40.1388 40.0581ZM42.4908 37.6581L42.9765 38.5322V38.5322L42.4908 37.6581ZM49.3548 37.6341L48.874 38.5109L48.8799 38.5141L49.3548 37.6341ZM51.6828 39.9621L50.8028 40.437L50.8073 40.4454L50.812 40.4537L51.6828 39.9621ZM49.0428 42.4341V43.4341H50.0615L50.0427 42.4156L49.0428 42.4341ZM48.1068 40.3701L47.4511 41.1251L47.4569 41.1301L47.4627 41.135L48.1068 40.3701ZM43.7628 40.3461L44.4259 41.0947L44.4272 41.0935L43.7628 40.3461ZM42.7308 42.4341L41.7409 42.2927L41.5778 43.4341H42.7308V42.4341ZM52.5228 43.3941H51.5228C51.5228 43.8312 51.4936 44.2068 51.4404 44.5257L52.4268 44.6901L53.4132 44.8545C53.4881 44.4053 53.5228 43.917 53.5228 43.3941H52.5228ZM52.4268 44.6901V43.6901H42.7068V44.6901V45.6901H52.4268V44.6901ZM42.7068 44.6901L41.7103 44.7731C41.8068 45.9309 42.2259 46.936 43.0382 47.6824L43.7148 46.9461L44.3915 46.2098C44.0197 45.8682 43.7669 45.3693 43.7034 44.607L42.7068 44.6901ZM43.7148 46.9461L43.0382 47.6824C43.8293 48.4093 44.8046 48.7621 45.8988 48.7621V47.7621V46.7621C45.265 46.7621 44.7844 46.5709 44.3915 46.2098L43.7148 46.9461ZM45.8988 47.7621V48.7621C46.6678 48.7621 47.3886 48.5958 48.0176 48.2162C48.6492 47.835 49.1245 47.2768 49.4599 46.5959L48.5628 46.1541L47.6657 45.7122C47.4731 46.1033 47.2405 46.3492 46.9841 46.5039C46.725 46.6603 46.3779 46.7621 45.8988 46.7621V47.7621ZM48.5628 46.1541V47.1541H52.1868V46.1541V45.1541H48.5628V46.1541ZM52.1868 46.1541L51.229 45.8667C50.9071 46.9397 50.2966 47.8202 49.3714 48.5277L49.9788 49.3221L50.5863 50.1164C51.8371 49.1599 52.6986 47.9284 53.1447 46.4414L52.1868 46.1541ZM49.9788 49.3221L49.3788 48.5221C48.4914 49.1877 47.3755 49.5461 45.9708 49.5461V50.5461V51.5461C47.7342 51.5461 49.2903 51.0885 50.5788 50.1221L49.9788 49.3221ZM45.9708 50.5461V49.5461C44.8419 49.5461 43.8576 49.3006 42.9946 48.8287L42.5148 49.7061L42.035 50.5834C43.2201 51.2315 44.5397 51.5461 45.9708 51.5461V50.5461ZM42.5148 49.7061L43.011 48.8378C42.1659 48.3549 41.5032 47.6815 41.0136 46.7976L40.1388 47.2821L39.264 47.7666C39.9265 48.9627 40.8478 49.9052 42.0187 50.5743L42.5148 49.7061ZM40.1388 47.2821L41.0193 46.808C40.5489 45.9344 40.2988 44.9018 40.2988 43.6821H39.2988H38.2988C38.2988 45.1823 38.6087 46.5497 39.2584 47.7562L40.1388 47.2821ZM39.2988 43.6821H40.2988C40.2988 42.4442 40.5498 41.4041 41.0193 40.5322L40.1388 40.0581L39.2584 39.584C38.6079 40.7921 38.2988 42.168 38.2988 43.6821H39.2988ZM40.1388 40.0581L41.0193 40.5322C41.491 39.6562 42.1399 38.997 42.9765 38.5322L42.4908 37.6581L42.0052 36.7839C40.8258 37.4391 39.9067 38.38 39.2584 39.584L40.1388 40.0581ZM42.4908 37.6581L42.9765 38.5322C43.8165 38.0656 44.805 37.8181 45.9708 37.8181V36.8181V35.8181C44.5126 35.8181 43.1812 36.1306 42.0052 36.7839L42.4908 37.6581ZM45.9708 36.8181V37.8181C47.0868 37.8181 48.046 38.0568 48.874 38.5109L49.3548 37.6341L49.8357 36.7573C48.6796 36.1233 47.3829 35.8181 45.9708 35.8181V36.8181ZM49.3548 37.6341L48.8799 38.5141C49.7163 38.9655 50.3514 39.6007 50.8028 40.437L51.6828 39.9621L52.5629 39.4871C51.9262 38.3075 51.0094 37.3907 49.8298 36.7541L49.3548 37.6341ZM51.6828 39.9621L50.812 40.4537C51.2762 41.276 51.5228 42.2463 51.5228 43.3941H52.5228H53.5228C53.5228 41.9499 53.2094 40.6321 52.5537 39.4705L51.6828 39.9621ZM49.0428 42.4341L50.0427 42.4156C50.0218 41.2914 49.6004 40.3205 48.751 39.6052L48.1068 40.3701L47.4627 41.135C47.8292 41.4436 48.0318 41.8487 48.043 42.4526L49.0428 42.4341ZM48.1068 40.3701L48.7625 39.615C47.9552 38.9139 46.9717 38.5781 45.8748 38.5781V39.5781V40.5781C46.538 40.5781 47.0425 40.7702 47.4511 41.1251L48.1068 40.3701ZM45.8748 39.5781V38.5781C44.8191 38.5781 43.8727 38.9104 43.0985 39.5987L43.7628 40.3461L44.4272 41.0935C44.8049 40.7577 45.2666 40.5781 45.8748 40.5781V39.5781ZM43.7628 40.3461L43.0998 39.5975C42.327 40.282 41.8951 41.2133 41.7409 42.2927L42.7308 42.4341L43.7208 42.5755C43.8226 41.8629 44.0787 41.4022 44.4259 41.0947L43.7628 40.3461ZM42.7308 42.4341V43.4341H49.0428V42.4341V41.4341H42.7308V42.4341ZM58.3353 39.0981H57.3353V42.6397L59.1877 39.6211L58.3353 39.0981ZM60.0153 37.4421L59.5213 36.5726L59.5127 36.5776L60.0153 37.4421ZM62.4153 36.8421H63.4153V35.8421H62.4153V36.8421ZM62.4153 40.3701V41.3701H63.4153V40.3701H62.4153ZM59.1273 41.1141L58.4536 40.3751L58.4481 40.3801L58.4427 40.3852L59.1273 41.1141ZM58.3353 50.3301V51.3301H59.3353V50.3301H58.3353ZM54.9753 50.3301H53.9753V51.3301H54.9753V50.3301ZM54.9753 37.0341V36.0341H53.9753V37.0341H54.9753ZM58.3353 37.0341H59.3353V36.0341H58.3353V37.0341ZM58.3353 39.0981L59.1877 39.6211C59.5365 39.0526 59.9785 38.6202 60.518 38.3066L60.0153 37.4421L59.5127 36.5776C58.6762 37.0639 57.9981 37.7356 57.483 38.5751L58.3353 39.0981ZM60.0153 37.4421L60.5093 38.3115C61.0471 38.006 61.6736 37.8421 62.4153 37.8421V36.8421V35.8421C61.365 35.8421 60.3915 36.0782 59.5213 36.5726L60.0153 37.4421ZM62.4153 36.8421H61.4153V40.3701H62.4153H63.4153V36.8421H62.4153ZM62.4153 40.3701V39.3701H61.5273V40.3701V41.3701H62.4153V40.3701ZM61.5273 40.3701V39.3701C60.3295 39.3701 59.2482 39.6506 58.4536 40.3751L59.1273 41.1141L59.8011 41.853C60.0945 41.5855 60.6132 41.3701 61.5273 41.3701V40.3701ZM59.1273 41.1141L58.4427 40.3852C57.6106 41.1668 57.3353 42.381 57.3353 43.7061H58.3353H59.3353C59.3353 42.5671 59.588 42.0533 59.812 41.8429L59.1273 41.1141ZM58.3353 43.7061H57.3353V50.3301H58.3353H59.3353V43.7061H58.3353ZM58.3353 50.3301V49.3301H54.9753V50.3301V51.3301H58.3353V50.3301ZM54.9753 50.3301H55.9753V37.0341H54.9753H53.9753V50.3301H54.9753ZM54.9753 37.0341V38.0341H58.3353V37.0341V36.0341H54.9753V37.0341ZM58.3353 37.0341H57.3353V39.0981H58.3353H59.3353V37.0341H58.3353ZM72.5505 50.3301L71.7683 50.9532L72.0686 51.3301H72.5505V50.3301ZM68.0385 44.6661L68.8206 44.043L67.0385 41.8058V44.6661H68.0385ZM68.0385 50.3301V51.3301H69.0385V50.3301H68.0385ZM64.6785 50.3301H63.6785V51.3301H64.6785V50.3301ZM64.6785 32.5701V31.5701H63.6785V32.5701H64.6785ZM68.0385 32.5701H69.0385V31.5701H68.0385V32.5701ZM68.0385 42.6741H67.0385V45.5488L68.8226 43.2947L68.0385 42.6741ZM72.5025 37.0341V36.0341H72.0186L71.7183 36.4135L72.5025 37.0341ZM76.8705 37.0341L77.622 37.6937L79.0787 36.0341H76.8705V37.0341ZM71.0145 43.7061L70.2629 43.0464L69.6794 43.7112L70.2679 44.3714L71.0145 43.7061ZM76.9185 50.3301V51.3301H79.1493L77.665 49.6647L76.9185 50.3301ZM72.5505 50.3301L73.3326 49.707L68.8206 44.043L68.0385 44.6661L67.2563 45.2892L71.7683 50.9532L72.5505 50.3301ZM68.0385 44.6661H67.0385V50.3301H68.0385H69.0385V44.6661H68.0385ZM68.0385 50.3301V49.3301H64.6785V50.3301V51.3301H68.0385V50.3301ZM64.6785 50.3301H65.6785V32.5701H64.6785H63.6785V50.3301H64.6785ZM64.6785 32.5701V33.5701H68.0385V32.5701V31.5701H64.6785V32.5701ZM68.0385 32.5701H67.0385V42.6741H68.0385H69.0385V32.5701H68.0385ZM68.0385 42.6741L68.8226 43.2947L73.2866 37.6547L72.5025 37.0341L71.7183 36.4135L67.2543 42.0535L68.0385 42.6741ZM72.5025 37.0341V38.0341H76.8705V37.0341V36.0341H72.5025V37.0341ZM76.8705 37.0341L76.1189 36.3744L70.2629 43.0464L71.0145 43.7061L71.766 44.3657L77.622 37.6937L76.8705 37.0341ZM71.0145 43.7061L70.2679 44.3714L76.172 50.9954L76.9185 50.3301L77.665 49.6647L71.761 43.0407L71.0145 43.7061ZM76.9185 50.3301V49.3301H72.5505V50.3301V51.3301H76.9185V50.3301ZM78.6221 40.0581L77.7359 39.5945L77.7304 39.6054L78.6221 40.0581ZM80.8061 37.6581L80.2894 36.8019L80.2828 36.8059L80.8061 37.6581ZM86.4941 37.4181L86.0166 38.2967L86.0245 38.3009L86.4941 37.4181ZM88.2941 38.9301L87.489 39.5233L89.2941 41.973V38.9301H88.2941ZM88.2941 37.0341V36.0341H87.2941V37.0341H88.2941ZM91.6781 37.0341H92.6781V36.0341H91.6781V37.0341ZM91.6781 50.3301V51.3301H92.6781V50.3301H91.6781ZM88.2941 50.3301H87.2941V51.3301H88.2941V50.3301ZM88.2941 48.3861H89.2941V45.1848L87.4719 47.8169L88.2941 48.3861ZM86.4941 49.9461L86.9637 50.829L86.9704 50.8254L86.4941 49.9461ZM80.8061 49.6821L80.2721 50.5276L80.2787 50.5317L80.8061 49.6821ZM78.6221 47.2581L77.7277 47.7053L77.7318 47.7135L77.736 47.7216L78.6221 47.2581ZM87.8141 41.5941L86.9343 42.0696L86.9399 42.0797L87.8141 41.5941ZM86.5181 40.2501L86.0111 41.112L86.0206 41.1176L86.0303 41.123L86.5181 40.2501ZM83.0381 40.2261L82.5391 39.3595V39.3595L83.0381 40.2261ZM81.7421 41.5701L80.8724 41.0765L80.8679 41.0844L81.7421 41.5701ZM81.7421 45.7461L80.8572 46.2118L80.8646 46.2259L80.8724 46.2397L81.7421 45.7461ZM83.0381 47.1141L82.5197 47.9693L82.5311 47.976L83.0381 47.1141ZM86.5181 47.1381L87.0059 48.011L87.0156 48.0056L87.0251 48L86.5181 47.1381ZM87.8141 45.7941L88.6883 46.2798L88.6938 46.2696L87.8141 45.7941ZM77.8301 43.6341H78.8301C78.8301 42.4234 79.0671 41.3905 79.5138 40.5108L78.6221 40.0581L77.7304 39.6054C77.1211 40.8056 76.8301 42.1568 76.8301 43.6341H77.8301ZM78.6221 40.0581L79.5082 40.5216C79.9769 39.6256 80.5858 38.9668 81.3293 38.5103L80.8061 37.6581L80.2828 36.8059C79.2024 37.4693 78.3553 38.4106 77.736 39.5946L78.6221 40.0581ZM80.8061 37.6581L81.3228 38.5143C82.0872 38.053 82.939 37.8181 83.9021 37.8181V36.8181V35.8181C82.5931 35.8181 81.381 36.1432 80.2894 36.8019L80.8061 37.6581ZM83.9021 36.8181V37.8181C84.758 37.8181 85.452 37.9898 86.0166 38.2967L86.4941 37.4181L86.9716 36.5395C86.0642 36.0463 85.0302 35.8181 83.9021 35.8181V36.8181ZM86.4941 37.4181L86.0245 38.3009C86.6614 38.6397 87.1405 39.0503 87.489 39.5233L88.2941 38.9301L89.0991 38.3369C88.5517 37.5939 87.8308 36.9964 86.9637 36.5352L86.4941 37.4181ZM88.2941 38.9301H89.2941V37.0341H88.2941H87.2941V38.9301H88.2941ZM88.2941 37.0341V38.0341H91.6781V37.0341V36.0341H88.2941V37.0341ZM91.6781 37.0341H90.6781V50.3301H91.6781H92.6781V37.0341H91.6781ZM91.6781 50.3301V49.3301H88.2941V50.3301V51.3301H91.6781V50.3301ZM88.2941 50.3301H89.2941V48.3861H88.2941H87.2941V50.3301H88.2941ZM88.2941 48.3861L87.4719 47.8169C87.1419 48.2936 86.6686 48.7142 86.0178 49.0668L86.4941 49.9461L86.9704 50.8254C87.8555 50.3459 88.5823 49.7266 89.1163 48.9553L88.2941 48.3861ZM86.4941 49.9461L86.0245 49.0632C85.4392 49.3745 84.7334 49.5461 83.8781 49.5461V50.5461V51.5461C85.0068 51.5461 86.045 51.3176 86.9637 50.829L86.4941 49.9461ZM83.8781 50.5461V49.5461C82.9395 49.5461 82.0989 49.3076 81.3335 48.8324L80.8061 49.6821L80.2787 50.5317C81.3693 51.2086 82.5767 51.5461 83.8781 51.5461V50.5461ZM80.8061 49.6821L81.3401 48.8366C80.59 48.3629 79.9779 47.6926 79.5082 46.7946L78.6221 47.2581L77.736 47.7216C78.3542 48.9035 79.1982 49.8493 80.2721 50.5276L80.8061 49.6821ZM78.6221 47.2581L79.5165 46.8109C79.0678 45.9134 78.8301 44.8625 78.8301 43.6341H77.8301H76.8301C76.8301 45.1257 77.1204 46.4907 77.7277 47.7053L78.6221 47.2581ZM88.2941 43.6821H89.2941C89.2941 42.7362 89.1082 41.8644 88.6882 41.1084L87.8141 41.5941L86.9399 42.0797C87.1599 42.4757 87.2941 42.996 87.2941 43.6821H88.2941ZM87.8141 41.5941L88.6938 41.1186C88.291 40.3735 87.7289 39.7811 87.0059 39.3771L86.5181 40.2501L86.0303 41.123C86.3953 41.327 86.6971 41.6307 86.9344 42.0696L87.8141 41.5941ZM86.5181 40.2501L87.0251 39.3881C86.3293 38.9788 85.5705 38.7701 84.7661 38.7701V39.7701V40.7701C85.2097 40.7701 85.6189 40.8813 86.0111 41.112L86.5181 40.2501ZM84.7661 39.7701V38.7701C83.9714 38.7701 83.2227 38.9659 82.5391 39.3595L83.0381 40.2261L83.537 41.0927C83.9095 40.8783 84.3128 40.7701 84.7661 40.7701V39.7701ZM83.0381 40.2261L82.5391 39.3595C81.8389 39.7626 81.2859 40.3479 80.8724 41.0765L81.7421 41.5701L82.6118 42.0637C82.8703 41.6082 83.1813 41.2975 83.537 41.0927L83.0381 40.2261ZM81.7421 41.5701L80.8679 41.0844C80.4494 41.8377 80.2621 42.7003 80.2621 43.6341H81.2621H82.2621C82.2621 42.9679 82.3947 42.4545 82.6162 42.0557L81.7421 41.5701ZM81.2621 43.6341H80.2621C80.2621 44.5696 80.45 45.4383 80.8572 46.2118L81.7421 45.7461L82.627 45.2803C82.3941 44.8379 82.2621 44.2985 82.2621 43.6341H81.2621ZM81.7421 45.7461L80.8724 46.2397C81.2839 46.9647 81.8311 47.5519 82.5198 47.9693L83.0381 47.1141L83.5564 46.2589C83.1891 46.0363 82.8723 45.7115 82.6118 45.2525L81.7421 45.7461ZM83.0381 47.1141L82.5311 47.976C83.2226 48.3828 83.9728 48.5941 84.7661 48.5941V47.5941V46.5941C84.3433 46.5941 83.9415 46.4853 83.5451 46.2521L83.0381 47.1141ZM84.7661 47.5941V48.5941C85.5606 48.5941 86.3126 48.3985 87.0059 48.011L86.5181 47.1381L86.0303 46.2651C85.6356 46.4857 85.2195 46.5941 84.7661 46.5941V47.5941ZM86.5181 47.1381L87.0251 48C87.7298 47.5855 88.2856 47.0045 88.6882 46.2797L87.8141 45.7941L86.9399 45.3084C86.7026 45.7357 86.3944 46.0507 86.0111 46.2761L86.5181 47.1381ZM87.8141 45.7941L88.6938 46.2696C89.1079 45.5035 89.2941 44.6291 89.2941 43.6821H88.2941H87.2941C87.2941 44.3671 87.1603 44.9006 86.9344 45.3186L87.8141 45.7941Z" fill="#0D1117" mask="url(#path-1-outside-1_7937_271)"/>
<mask id="path-3-outside-2_7937_271" maskUnits="userSpaceOnUse" x="113.194" y="31.3301" width="56" height="21" fill="black">
<rect fill="white" x="113.194" y="31.3301" width="56" height="21"/>
<path d="M122.338 36.8421C123.346 36.8421 124.242 37.0661 125.026 37.5141C125.81 37.9461 126.418 38.5941 126.85 39.4581C127.298 40.3061 127.522 41.3301 127.522 42.5301V50.3301H124.162V42.9861C124.162 41.9301 123.898 41.1221 123.37 40.5621C122.842 39.9861 122.122 39.6981 121.21 39.6981C120.282 39.6981 119.546 39.9861 119.002 40.5621C118.474 41.1221 118.21 41.9301 118.21 42.9861V50.3301H114.85V32.5701H118.21V38.6901C118.642 38.1141 119.218 37.6661 119.938 37.3461C120.658 37.0101 121.458 36.8421 122.338 36.8421ZM143.078 43.3941C143.078 43.8741 143.046 44.3061 142.982 44.6901H133.262C133.342 45.6501 133.678 46.4021 134.27 46.9461C134.862 47.4901 135.59 47.7621 136.454 47.7621C137.702 47.7621 138.59 47.2261 139.118 46.1541H142.742C142.358 47.4341 141.622 48.4901 140.534 49.3221C139.446 50.1381 138.11 50.5461 136.526 50.5461C135.246 50.5461 134.094 50.2661 133.07 49.7061C132.062 49.1301 131.27 48.3221 130.694 47.2821C130.134 46.2421 129.854 45.0421 129.854 43.6821C129.854 42.3061 130.134 41.0981 130.694 40.0581C131.254 39.0181 132.038 38.2181 133.046 37.6581C134.054 37.0981 135.214 36.8181 136.526 36.8181C137.79 36.8181 138.918 37.0901 139.91 37.6341C140.918 38.1781 141.694 38.9541 142.238 39.9621C142.798 40.9541 143.078 42.0981 143.078 43.3941ZM139.598 42.4341C139.582 41.5701 139.27 40.8821 138.662 40.3701C138.054 39.8421 137.31 39.5781 136.43 39.5781C135.598 39.5781 134.894 39.8341 134.318 40.3461C133.758 40.8421 133.414 41.5381 133.286 42.4341H139.598ZM148.89 39.0981C149.322 38.3941 149.882 37.8421 150.57 37.4421C151.274 37.0421 152.074 36.8421 152.97 36.8421V40.3701H152.082C151.026 40.3701 150.226 40.6181 149.682 41.1141C149.154 41.6101 148.89 42.4741 148.89 43.7061V50.3301H145.53V37.0341H148.89V39.0981ZM167.593 43.3941C167.593 43.8741 167.561 44.3061 167.497 44.6901H157.777C157.857 45.6501 158.193 46.4021 158.785 46.9461C159.377 47.4901 160.105 47.7621 160.969 47.7621C162.217 47.7621 163.105 47.2261 163.633 46.1541H167.257C166.873 47.4341 166.137 48.4901 165.049 49.3221C163.961 50.1381 162.625 50.5461 161.041 50.5461C159.761 50.5461 158.609 50.2661 157.585 49.7061C156.577 49.1301 155.785 48.3221 155.209 47.2821C154.649 46.2421 154.369 45.0421 154.369 43.6821C154.369 42.3061 154.649 41.0981 155.209 40.0581C155.769 39.0181 156.553 38.2181 157.561 37.6581C158.569 37.0981 159.729 36.8181 161.041 36.8181C162.305 36.8181 163.433 37.0901 164.425 37.6341C165.433 38.1781 166.209 38.9541 166.753 39.9621C167.313 40.9541 167.593 42.0981 167.593 43.3941ZM164.113 42.4341C164.097 41.5701 163.785 40.8821 163.177 40.3701C162.569 39.8421 161.825 39.5781 160.945 39.5781C160.113 39.5781 159.409 39.8341 158.833 40.3461C158.273 40.8421 157.929 41.5381 157.801 42.4341H164.113Z"/>
</mask>
<path d="M122.338 36.8421C123.346 36.8421 124.242 37.0661 125.026 37.5141C125.81 37.9461 126.418 38.5941 126.85 39.4581C127.298 40.3061 127.522 41.3301 127.522 42.5301V50.3301H124.162V42.9861C124.162 41.9301 123.898 41.1221 123.37 40.5621C122.842 39.9861 122.122 39.6981 121.21 39.6981C120.282 39.6981 119.546 39.9861 119.002 40.5621C118.474 41.1221 118.21 41.9301 118.21 42.9861V50.3301H114.85V32.5701H118.21V38.6901C118.642 38.1141 119.218 37.6661 119.938 37.3461C120.658 37.0101 121.458 36.8421 122.338 36.8421ZM143.078 43.3941C143.078 43.8741 143.046 44.3061 142.982 44.6901H133.262C133.342 45.6501 133.678 46.4021 134.27 46.9461C134.862 47.4901 135.59 47.7621 136.454 47.7621C137.702 47.7621 138.59 47.2261 139.118 46.1541H142.742C142.358 47.4341 141.622 48.4901 140.534 49.3221C139.446 50.1381 138.11 50.5461 136.526 50.5461C135.246 50.5461 134.094 50.2661 133.07 49.7061C132.062 49.1301 131.27 48.3221 130.694 47.2821C130.134 46.2421 129.854 45.0421 129.854 43.6821C129.854 42.3061 130.134 41.0981 130.694 40.0581C131.254 39.0181 132.038 38.2181 133.046 37.6581C134.054 37.0981 135.214 36.8181 136.526 36.8181C137.79 36.8181 138.918 37.0901 139.91 37.6341C140.918 38.1781 141.694 38.9541 142.238 39.9621C142.798 40.9541 143.078 42.0981 143.078 43.3941ZM139.598 42.4341C139.582 41.5701 139.27 40.8821 138.662 40.3701C138.054 39.8421 137.31 39.5781 136.43 39.5781C135.598 39.5781 134.894 39.8341 134.318 40.3461C133.758 40.8421 133.414 41.5381 133.286 42.4341H139.598ZM148.89 39.0981C149.322 38.3941 149.882 37.8421 150.57 37.4421C151.274 37.0421 152.074 36.8421 152.97 36.8421V40.3701H152.082C151.026 40.3701 150.226 40.6181 149.682 41.1141C149.154 41.6101 148.89 42.4741 148.89 43.7061V50.3301H145.53V37.0341H148.89V39.0981ZM167.593 43.3941C167.593 43.8741 167.561 44.3061 167.497 44.6901H157.777C157.857 45.6501 158.193 46.4021 158.785 46.9461C159.377 47.4901 160.105 47.7621 160.969 47.7621C162.217 47.7621 163.105 47.2261 163.633 46.1541H167.257C166.873 47.4341 166.137 48.4901 165.049 49.3221C163.961 50.1381 162.625 50.5461 161.041 50.5461C159.761 50.5461 158.609 50.2661 157.585 49.7061C156.577 49.1301 155.785 48.3221 155.209 47.2821C154.649 46.2421 154.369 45.0421 154.369 43.6821C154.369 42.3061 154.649 41.0981 155.209 40.0581C155.769 39.0181 156.553 38.2181 157.561 37.6581C158.569 37.0981 159.729 36.8181 161.041 36.8181C162.305 36.8181 163.433 37.0901 164.425 37.6341C165.433 38.1781 166.209 38.9541 166.753 39.9621C167.313 40.9541 167.593 42.0981 167.593 43.3941ZM164.113 42.4341C164.097 41.5701 163.785 40.8821 163.177 40.3701C162.569 39.8421 161.825 39.5781 160.945 39.5781C160.113 39.5781 159.409 39.8341 158.833 40.3461C158.273 40.8421 157.929 41.5381 157.801 42.4341H164.113Z" fill="#FAFAFA"/>
<path d="M125.026 37.5141L124.53 38.3823L124.537 38.3862L124.544 38.3899L125.026 37.5141ZM126.85 39.4581L125.956 39.9053L125.961 39.9153L125.966 39.9252L126.85 39.4581ZM127.522 50.3301V51.3301H128.522V50.3301H127.522ZM124.162 50.3301H123.162V51.3301H124.162V50.3301ZM123.37 40.5621L122.633 41.2379L122.643 41.2481L123.37 40.5621ZM119.002 40.5621L118.275 39.8755L118.275 39.8761L119.002 40.5621ZM118.21 50.3301V51.3301H119.21V50.3301H118.21ZM114.85 50.3301H113.85V51.3301H114.85V50.3301ZM114.85 32.5701V31.5701H113.85V32.5701H114.85ZM118.21 32.5701H119.21V31.5701H118.21V32.5701ZM118.21 38.6901H117.21V41.6901L119.01 39.2901L118.21 38.6901ZM119.938 37.3461L120.344 38.2599L120.353 38.2562L120.361 38.2523L119.938 37.3461ZM122.338 36.8421V37.8421C123.193 37.8421 123.914 38.0304 124.53 38.3823L125.026 37.5141L125.522 36.6458C124.57 36.1018 123.5 35.8421 122.338 35.8421V36.8421ZM125.026 37.5141L124.544 38.3899C125.136 38.7163 125.607 39.2075 125.956 39.9053L126.85 39.4581L127.745 39.0109C127.23 37.9806 126.485 37.1759 125.509 36.6382L125.026 37.5141ZM126.85 39.4581L125.966 39.9252C126.321 40.5975 126.522 41.4528 126.522 42.5301H127.522H128.522C128.522 41.2074 128.275 40.0146 127.735 38.991L126.85 39.4581ZM127.522 42.5301H126.522V50.3301H127.522H128.522V42.5301H127.522ZM127.522 50.3301V49.3301H124.162V50.3301V51.3301H127.522V50.3301ZM124.162 50.3301H125.162V42.9861H124.162H123.162V50.3301H124.162ZM124.162 42.9861H125.162C125.162 41.7712 124.857 40.6814 124.098 39.8761L123.37 40.5621L122.643 41.2481C122.939 41.5627 123.162 42.089 123.162 42.9861H124.162ZM123.37 40.5621L124.107 39.8864C123.358 39.0687 122.351 38.6981 121.21 38.6981V39.6981V40.6981C121.893 40.6981 122.327 40.9034 122.633 41.2378L123.37 40.5621ZM121.21 39.6981V38.6981C120.058 38.6981 119.041 39.065 118.275 39.8755L119.002 40.5621L119.729 41.2487C120.052 40.9072 120.506 40.6981 121.21 40.6981V39.6981ZM119.002 40.5621L118.275 39.8761C117.515 40.6814 117.21 41.7712 117.21 42.9861H118.21H119.21C119.21 42.089 119.433 41.5627 119.73 41.2481L119.002 40.5621ZM118.21 42.9861H117.21V50.3301H118.21H119.21V42.9861H118.21ZM118.21 50.3301V49.3301H114.85V50.3301V51.3301H118.21V50.3301ZM114.85 50.3301H115.85V32.5701H114.85H113.85V50.3301H114.85ZM114.85 32.5701V33.5701H118.21V32.5701V31.5701H114.85V32.5701ZM118.21 32.5701H117.21V38.6901H118.21H119.21V32.5701H118.21ZM118.21 38.6901L119.01 39.2901C119.331 38.8632 119.765 38.5173 120.344 38.2599L119.938 37.3461L119.532 36.4323C118.671 36.8149 117.954 37.365 117.41 38.0901L118.21 38.6901ZM119.938 37.3461L120.361 38.2523C120.935 37.9844 121.589 37.8421 122.338 37.8421V36.8421V35.8421C121.328 35.8421 120.382 36.0357 119.515 36.4399L119.938 37.3461ZM142.982 44.6901V45.6901H143.829L143.968 44.8545L142.982 44.6901ZM133.262 44.6901V43.6901H132.175L132.265 44.7731L133.262 44.6901ZM134.27 46.9461L133.593 47.6824V47.6824L134.27 46.9461ZM139.118 46.1541V45.1541H138.495L138.22 45.7122L139.118 46.1541ZM142.742 46.1541L143.699 46.4414L144.086 45.1541H142.742V46.1541ZM140.534 49.3221L141.134 50.1221L141.141 50.1164L140.534 49.3221ZM133.07 49.7061L132.573 50.5743L132.582 50.579L132.59 50.5834L133.07 49.7061ZM130.694 47.2821L129.813 47.7562L129.819 47.7666L130.694 47.2821ZM130.694 40.0581L129.813 39.584V39.584L130.694 40.0581ZM133.046 37.6581L133.531 38.5322V38.5322L133.046 37.6581ZM139.91 37.6341L139.429 38.5109L139.435 38.5141L139.91 37.6341ZM142.238 39.9621L141.358 40.437L141.362 40.4454L141.367 40.4537L142.238 39.9621ZM139.598 42.4341V43.4341H140.616L140.597 42.4156L139.598 42.4341ZM138.662 40.3701L138.006 41.1251L138.012 41.1301L138.017 41.135L138.662 40.3701ZM134.318 40.3461L134.981 41.0947L134.982 41.0935L134.318 40.3461ZM133.286 42.4341L132.296 42.2927L132.133 43.4341H133.286V42.4341ZM143.078 43.3941H142.078C142.078 43.8312 142.048 44.2068 141.995 44.5257L142.982 44.6901L143.968 44.8545C144.043 44.4053 144.078 43.917 144.078 43.3941H143.078ZM142.982 44.6901V43.6901H133.262V44.6901V45.6901H142.982V44.6901ZM133.262 44.6901L132.265 44.7731C132.361 45.9309 132.781 46.936 133.593 47.6824L134.27 46.9461L134.946 46.2098C134.574 45.8682 134.322 45.3693 134.258 44.607L133.262 44.6901ZM134.27 46.9461L133.593 47.6824C134.384 48.4093 135.359 48.7621 136.454 48.7621V47.7621V46.7621C135.82 46.7621 135.339 46.5709 134.946 46.2098L134.27 46.9461ZM136.454 47.7621V48.7621C137.222 48.7621 137.943 48.5958 138.572 48.2162C139.204 47.835 139.679 47.2768 140.015 46.5959L139.118 46.1541L138.22 45.7122C138.028 46.1033 137.795 46.3492 137.539 46.5039C137.28 46.6603 136.933 46.7621 136.454 46.7621V47.7621ZM139.118 46.1541V47.1541H142.742V46.1541V45.1541H139.118V46.1541ZM142.742 46.1541L141.784 45.8667C141.462 46.9397 140.851 47.8202 139.926 48.5277L140.534 49.3221L141.141 50.1164C142.392 49.1599 143.253 47.9284 143.699 46.4414L142.742 46.1541ZM140.534 49.3221L139.934 48.5221C139.046 49.1877 137.93 49.5461 136.526 49.5461V50.5461V51.5461C138.289 51.5461 139.845 51.0885 141.134 50.1221L140.534 49.3221ZM136.526 50.5461V49.5461C135.397 49.5461 134.412 49.3006 133.549 48.8287L133.07 49.7061L132.59 50.5834C133.775 51.2315 135.094 51.5461 136.526 51.5461V50.5461ZM133.07 49.7061L133.566 48.8378C132.721 48.3549 132.058 47.6815 131.568 46.7976L130.694 47.2821L129.819 47.7666C130.481 48.9627 131.402 49.9052 132.573 50.5743L133.07 49.7061ZM130.694 47.2821L131.574 46.808C131.104 45.9344 130.854 44.9018 130.854 43.6821H129.854H128.854C128.854 45.1823 129.163 46.5497 129.813 47.7562L130.694 47.2821ZM129.854 43.6821H130.854C130.854 42.4442 131.104 41.4041 131.574 40.5322L130.694 40.0581L129.813 39.584C129.163 40.7921 128.854 42.168 128.854 43.6821H129.854ZM130.694 40.0581L131.574 40.5322C132.046 39.6562 132.695 38.997 133.531 38.5322L133.046 37.6581L132.56 36.7839C131.38 37.4391 130.461 38.38 129.813 39.584L130.694 40.0581ZM133.046 37.6581L133.531 38.5322C134.371 38.0656 135.36 37.8181 136.526 37.8181V36.8181V35.8181C135.067 35.8181 133.736 36.1306 132.56 36.7839L133.046 37.6581ZM136.526 36.8181V37.8181C137.642 37.8181 138.601 38.0568 139.429 38.5109L139.91 37.6341L140.39 36.7573C139.234 36.1233 137.938 35.8181 136.526 35.8181V36.8181ZM139.91 37.6341L139.435 38.5141C140.271 38.9655 140.906 39.6007 141.358 40.437L142.238 39.9621L143.118 39.4871C142.481 38.3075 141.564 37.3907 140.384 36.7541L139.91 37.6341ZM142.238 39.9621L141.367 40.4537C141.831 41.276 142.078 42.2463 142.078 43.3941H143.078H144.078C144.078 41.9499 143.764 40.6321 143.108 39.4705L142.238 39.9621ZM139.598 42.4341L140.597 42.4156C140.577 41.2914 140.155 40.3205 139.306 39.6052L138.662 40.3701L138.017 41.135C138.384 41.4436 138.587 41.8487 138.598 42.4526L139.598 42.4341ZM138.662 40.3701L139.317 39.615C138.51 38.9139 137.526 38.5781 136.43 38.5781V39.5781V40.5781C137.093 40.5781 137.597 40.7702 138.006 41.1251L138.662 40.3701ZM136.43 39.5781V38.5781C135.374 38.5781 134.427 38.9104 133.653 39.5987L134.318 40.3461L134.982 41.0935C135.36 40.7577 135.821 40.5781 136.43 40.5781V39.5781ZM134.318 40.3461L133.654 39.5975C132.882 40.282 132.45 41.2133 132.296 42.2927L133.286 42.4341L134.275 42.5755C134.377 41.8629 134.633 41.4022 134.981 41.0947L134.318 40.3461ZM133.286 42.4341V43.4341H139.598V42.4341V41.4341H133.286V42.4341ZM148.89 39.0981H147.89V42.6397L149.742 39.6211L148.89 39.0981ZM150.57 37.4421L150.076 36.5726L150.067 36.5776L150.57 37.4421ZM152.97 36.8421H153.97V35.8421H152.97V36.8421ZM152.97 40.3701V41.3701H153.97V40.3701H152.97ZM149.682 41.1141L149.008 40.3751L149.003 40.3801L148.997 40.3852L149.682 41.1141ZM148.89 50.3301V51.3301H149.89V50.3301H148.89ZM145.53 50.3301H144.53V51.3301H145.53V50.3301ZM145.53 37.0341V36.0341H144.53V37.0341H145.53ZM148.89 37.0341H149.89V36.0341H148.89V37.0341ZM148.89 39.0981L149.742 39.6211C150.091 39.0526 150.533 38.6202 151.073 38.3066L150.57 37.4421L150.067 36.5776C149.231 37.0639 148.553 37.7356 148.038 38.5751L148.89 39.0981ZM150.57 37.4421L151.064 38.3115C151.602 38.006 152.228 37.8421 152.97 37.8421V36.8421V35.8421C151.92 35.8421 150.946 36.0782 150.076 36.5726L150.57 37.4421ZM152.97 36.8421H151.97V40.3701H152.97H153.97V36.8421H152.97ZM152.97 40.3701V39.3701H152.082V40.3701V41.3701H152.97V40.3701ZM152.082 40.3701V39.3701C150.884 39.3701 149.803 39.6506 149.008 40.3751L149.682 41.1141L150.356 41.853C150.649 41.5855 151.168 41.3701 152.082 41.3701V40.3701ZM149.682 41.1141L148.997 40.3852C148.165 41.1668 147.89 42.381 147.89 43.7061H148.89H149.89C149.89 42.5671 150.143 42.0533 150.367 41.8429L149.682 41.1141ZM148.89 43.7061H147.89V50.3301H148.89H149.89V43.7061H148.89ZM148.89 50.3301V49.3301H145.53V50.3301V51.3301H148.89V50.3301ZM145.53 50.3301H146.53V37.0341H145.53H144.53V50.3301H145.53ZM145.53 37.0341V38.0341H148.89V37.0341V36.0341H145.53V37.0341ZM148.89 37.0341H147.89V39.0981H148.89H149.89V37.0341H148.89ZM167.497 44.6901V45.6901H168.344L168.484 44.8545L167.497 44.6901ZM157.777 44.6901V43.6901H156.69L156.781 44.7731L157.777 44.6901ZM158.785 46.9461L158.109 47.6824V47.6824L158.785 46.9461ZM163.633 46.1541V45.1541H163.011L162.736 45.7122L163.633 46.1541ZM167.257 46.1541L168.215 46.4414L168.601 45.1541H167.257V46.1541ZM165.049 49.3221L165.649 50.1221L165.657 50.1164L165.049 49.3221ZM157.585 49.7061L157.089 50.5743L157.097 50.579L157.105 50.5834L157.585 49.7061ZM155.209 47.2821L154.329 47.7562L154.334 47.7666L155.209 47.2821ZM155.209 40.0581L154.329 39.584V39.584L155.209 40.0581ZM157.561 37.6581L158.047 38.5322V38.5322L157.561 37.6581ZM164.425 37.6341L163.944 38.5109L163.95 38.5141L164.425 37.6341ZM166.753 39.9621L165.873 40.437L165.878 40.4454L165.882 40.4537L166.753 39.9621ZM164.113 42.4341V43.4341H165.132L165.113 42.4156L164.113 42.4341ZM163.177 40.3701L162.521 41.1251L162.527 41.1301L162.533 41.135L163.177 40.3701ZM158.833 40.3461L159.496 41.0947L159.498 41.0935L158.833 40.3461ZM157.801 42.4341L156.811 42.2927L156.648 43.4341H157.801V42.4341ZM167.593 43.3941H166.593C166.593 43.8312 166.564 44.2068 166.511 44.5257L167.497 44.6901L168.484 44.8545C168.558 44.4053 168.593 43.917 168.593 43.3941H167.593ZM167.497 44.6901V43.6901H157.777V44.6901V45.6901H167.497V44.6901ZM157.777 44.6901L156.781 44.7731C156.877 45.9309 157.296 46.936 158.109 47.6824L158.785 46.9461L159.462 46.2098C159.09 45.8682 158.837 45.3693 158.774 44.607L157.777 44.6901ZM158.785 46.9461L158.109 47.6824C158.9 48.4093 159.875 48.7621 160.969 48.7621V47.7621V46.7621C160.335 46.7621 159.855 46.5709 159.462 46.2098L158.785 46.9461ZM160.969 47.7621V48.7621C161.738 48.7621 162.459 48.5958 163.088 48.2162C163.719 47.835 164.195 47.2768 164.53 46.5959L163.633 46.1541L162.736 45.7122C162.543 46.1033 162.311 46.3492 162.054 46.5039C161.795 46.6603 161.448 46.7621 160.969 46.7621V47.7621ZM163.633 46.1541V47.1541H167.257V46.1541V45.1541H163.633V46.1541ZM167.257 46.1541L166.299 45.8667C165.977 46.9397 165.367 47.8202 164.442 48.5277L165.049 49.3221L165.657 50.1164C166.907 49.1599 167.769 47.9284 168.215 46.4414L167.257 46.1541ZM165.049 49.3221L164.449 48.5221C163.562 49.1877 162.446 49.5461 161.041 49.5461V50.5461V51.5461C162.805 51.5461 164.361 51.0885 165.649 50.1221L165.049 49.3221ZM161.041 50.5461V49.5461C159.912 49.5461 158.928 49.3006 158.065 48.8287L157.585 49.7061L157.105 50.5834C158.29 51.2315 159.61 51.5461 161.041 51.5461V50.5461ZM157.585 49.7061L158.081 48.8378C157.236 48.3549 156.573 47.6815 156.084 46.7976L155.209 47.2821L154.334 47.7666C154.997 48.9627 155.918 49.9052 157.089 50.5743L157.585 49.7061ZM155.209 47.2821L156.09 46.808C155.619 45.9344 155.369 44.9018 155.369 43.6821H154.369H153.369C153.369 45.1823 153.679 46.5497 154.329 47.7562L155.209 47.2821ZM154.369 43.6821H155.369C155.369 42.4442 155.62 41.4041 156.09 40.5322L155.209 40.0581L154.329 39.584C153.678 40.7921 153.369 42.168 153.369 43.6821H154.369ZM155.209 40.0581L156.09 40.5322C156.561 39.6562 157.21 38.997 158.047 38.5322L157.561 37.6581L157.076 36.7839C155.896 37.4391 154.977 38.38 154.329 39.584L155.209 40.0581ZM157.561 37.6581L158.047 38.5322C158.887 38.0656 159.875 37.8181 161.041 37.8181V36.8181V35.8181C159.583 35.8181 158.252 36.1306 157.076 36.7839L157.561 37.6581ZM161.041 36.8181V37.8181C162.157 37.8181 163.116 38.0568 163.944 38.5109L164.425 37.6341L164.906 36.7573C163.75 36.1233 162.453 35.8181 161.041 35.8181V36.8181ZM164.425 37.6341L163.95 38.5141C164.787 38.9655 165.422 39.6007 165.873 40.437L166.753 39.9621L167.633 39.4871C166.997 38.3075 166.08 37.3907 164.9 36.7541L164.425 37.6341ZM166.753 39.9621L165.882 40.4537C166.347 41.276 166.593 42.2463 166.593 43.3941H167.593H168.593C168.593 41.9499 168.28 40.6321 167.624 39.4705L166.753 39.9621ZM164.113 42.4341L165.113 42.4156C165.092 41.2914 164.671 40.3205 163.821 39.6052L163.177 40.3701L162.533 41.135C162.9 41.4436 163.102 41.8487 163.113 42.4526L164.113 42.4341ZM163.177 40.3701L163.833 39.615C163.026 38.9139 162.042 38.5781 160.945 38.5781V39.5781V40.5781C161.608 40.5781 162.113 40.7702 162.521 41.1251L163.177 40.3701ZM160.945 39.5781V38.5781C159.889 38.5781 158.943 38.9104 158.169 39.5987L158.833 40.3461L159.498 41.0935C159.875 40.7577 160.337 40.5781 160.945 40.5781V39.5781ZM158.833 40.3461L158.17 39.5975C157.397 40.282 156.965 41.2133 156.811 42.2927L157.801 42.4341L158.791 42.5755C158.893 41.8629 159.149 41.4022 159.496 41.0947L158.833 40.3461ZM157.801 42.4341V43.4341H164.113V42.4341V41.4341H157.801V42.4341Z" fill="#0D1117" mask="url(#path-3-outside-2_7937_271)"/>
<path d="M102.302 13.013C102.053 13.1091 101.808 13.1038 101.567 12.997C101.341 12.8557 101.18 12.6606 101.084 12.4119C100.92 11.989 100.953 11.519 101.182 11.0017C101.426 10.4499 101.759 10.0923 102.182 9.92883C102.431 9.8327 102.651 9.84765 102.843 9.9737C103.05 10.0653 103.201 10.2354 103.297 10.4841C103.451 10.8821 103.423 11.3646 103.214 11.9317C103.029 12.4891 102.725 12.8496 102.302 13.013ZM101.253 26.498C100.78 26.6806 100.33 26.6976 99.9004 26.549C99.4962 26.3908 99.2028 26.0753 99.0201 25.6027C98.8759 25.2296 98.8032 24.6717 98.802 23.9288C98.8008 23.186 98.8425 22.3693 98.9272 21.4789C99.0119 20.5885 99.1082 19.7651 99.2161 19.0087C99.3393 18.2178 99.4503 17.6174 99.5492 17.2075C99.6232 16.8072 99.7221 16.3974 99.8458 15.9779C99.9696 15.5584 100.243 15.2669 100.666 15.1035C100.79 15.0554 101.033 15.0186 101.395 14.9932C101.782 14.9581 102.153 14.9575 102.509 14.9913C102.881 14.9907 103.095 15.0651 103.153 15.2143C102.918 15.4195 102.68 15.8402 102.44 16.4762C102.19 17.0874 101.949 17.7952 101.717 18.5997C101.485 19.4042 101.287 20.2239 101.123 21.0589C100.985 21.8843 100.89 22.6359 100.837 23.3138C100.809 23.982 100.853 24.4654 100.969 24.7639C101.142 25.2116 101.452 25.3489 101.9 25.1759C102.248 25.0413 102.599 24.6913 102.952 24.1259C103.305 23.5606 103.637 22.9033 103.948 22.1542C104.284 21.3955 104.582 20.6512 104.844 19.9213C105.095 19.1666 105.31 18.5402 105.489 18.0421C105.669 17.544 105.783 17.2854 105.833 17.2662C105.932 17.2277 106.001 17.2582 106.04 17.3577C106.059 17.4075 106.002 17.6296 105.869 18.0243C105.735 18.4189 105.556 18.917 105.331 19.5185C105.121 20.0855 104.892 20.6746 104.642 21.2858C104.407 21.8625 104.203 22.3702 104.03 22.8089C103.856 23.2476 103.734 23.5235 103.664 23.6366C103.41 24.1635 103.081 24.7192 102.678 25.3038C102.3 25.8788 101.825 26.2769 101.253 26.498ZM108.33 25.178C107.609 25.4568 106.963 25.3774 106.394 24.9399C105.859 24.5177 105.467 23.9832 105.217 23.3365C105.197 23.2867 105.181 23.2073 105.167 23.0982C105.129 22.9987 105.16 22.9297 105.259 22.8913C105.334 22.8624 105.403 22.8929 105.466 22.9828C105.52 23.0478 105.569 23.1004 105.613 23.1405C106.125 23.8002 106.779 23.9763 107.575 23.6686C107.998 23.5052 108.293 23.2338 108.461 22.8544C108.629 22.4751 108.626 22.0616 108.453 21.6138C108.261 21.1164 107.935 20.6421 107.475 20.191C107.014 19.7399 106.527 19.2563 106.013 18.7402C105.524 18.2145 105.15 17.6159 104.89 16.9443C104.679 16.3971 104.578 15.8784 104.589 15.3883C104.59 14.8732 104.75 14.3254 105.069 13.7448C105.403 13.1297 105.831 12.5354 106.353 11.9621C106.874 11.3888 107.425 10.8902 108.004 10.4661C108.584 10.042 109.097 9.74347 109.545 9.57043C110.067 9.36855 110.464 9.35833 110.734 9.53977C111.004 9.72121 111.235 10.0607 111.428 10.5581C111.466 10.6576 111.507 10.7992 111.549 10.983C111.582 11.1418 111.546 11.2702 111.44 11.368C110.961 11.7536 110.472 12.2282 109.975 12.7919C109.469 13.3307 109.214 13.9295 109.211 14.5881C109.215 14.6723 109.18 14.7288 109.105 14.7577C108.981 14.8058 108.895 14.7676 108.847 14.6432C108.712 14.295 108.775 13.8278 109.034 13.2415C109.284 12.6303 109.512 12.1848 109.718 11.905C109.074 12.3827 108.463 12.9476 107.886 13.5995C107.324 14.2169 106.917 14.9029 106.666 15.6577C106.439 16.4028 106.494 17.2107 106.831 18.0812C107.129 18.8523 107.574 19.5236 108.166 20.0951C108.749 20.6417 109.19 21.3006 109.488 22.0716C109.728 22.6935 109.761 23.2955 109.586 23.8779C109.445 24.4754 109.026 24.9088 108.33 25.178Z" fill="#FE6E00"/>
<path d="M101.721 41.1641C106.466 22.7978 77.0826 23.7961 61.7976 26.5911" stroke="#FE6E00"/>
<path d="M101.927 40.6086L121.41 11.4766" stroke="#FE6E00"/>
</svg>
